# xmcd
#
# Track frame offsets:
#	150
#	13812
#	30452
#	44935
#	63677
#	74347
#	87852
#	106117
#	119362
#	135607
#	150782
#	162950
#	173912
#	185895
#	199647
#	216825
#	231492
#	251512
#	262490
#	282315
#
# Disc length: 3971 seconds
#
# Revision: 0
# Processed by: cddbd v1.5.2PL0 Copyright (c) Steve Scherf et al.
# Submitted via: EasyCDDAExtractor 15.3.0.1
#
DISCID=2f0f8114
DTITLE=Randy Travis - Anthology [CD2]
DYEAR=2006
DGENRE=
TTITLE0=1982
TTITLE1=I Told You So
TTITLE2=Is It Still Over?
TTITLE3=No Place Like Home
TTITLE4=My Heart Cracked (But It Did Not Break)
TTITLE5=Old 8 x 10
TTITLE6=Promises
TTITLE7=An Old Pair of Shoes
TTITLE8=I'd Surrender All
TTITLE9=Before You Kill Us All
TTITLE10=Better Class of Losers
TTITLE11=Would I
TTITLE12=When Your World Was Turning For Me
TTITLE13=Send My Body
TTITLE14=Price To Pay
TTITLE15=There'll Always Be A Honcky Tonk Somewhere
TTITLE16=Are We In Trouble Now
TTITLE17=Card Carryin' Fool
TTITLE18=Reasons I Cheat
TTITLE19=The Truth Is Lyin' Next To You
EXTD=
EXTT0=
EXTT1=
EXTT2=
EXTT3=
EXTT4=
EXTT5=
EXTT6=
EXTT7=
EXTT8=
EXTT9=
EXTT10=
EXTT11=
EXTT12=
EXTT13=
EXTT14=
EXTT15=
EXTT16=
EXTT17=
EXTT18=
EXTT19=
PLAYORDER=
